<?xml version="1.0" encoding="UTF-8" standalone="no"?>
<!-- Created with Inkscape (http://www.inkscape.org/) -->

<svg
   xmlns:dc="http://purl.org/dc/elements/1.1/"
   xmlns:cc="http://creativecommons.org/ns#"
   xmlns:rdf="http://www.w3.org/1999/02/22-rdf-syntax-ns#"
   xmlns:svg="http://www.w3.org/2000/svg"
   xmlns="http://www.w3.org/2000/svg"
   xmlns:sodipodi="http://sodipodi.sourceforge.net/DTD/sodipodi-0.dtd"
   xmlns:inkscape="http://www.inkscape.org/namespaces/inkscape"
   width="128.80544mm"
   height="115.94457mm"
   viewBox="0 0 128.80544 115.94457"
   version="1.1"
   id="svg8"
   inkscape:version="0.92.2 (5c3e80d, 2017-08-06)"
   sodipodi:docname="FS4.svg">
  <defs
     id="defs2" />
  <sodipodi:namedview
     id="base"
     pagecolor="#ffffff"
     bordercolor="#666666"
     borderopacity="1.0"
     inkscape:pageopacity="0.0"
     inkscape:pageshadow="2"
     inkscape:zoom="0.35"
     inkscape:cx="-186.58815"
     inkscape:cy="-15.177857"
     inkscape:document-units="mm"
     inkscape:current-layer="layer1"
     showgrid="false"
     fit-margin-top="0"
     fit-margin-left="0"
     fit-margin-right="0"
     fit-margin-bottom="0"
     inkscape:window-width="1366"
     inkscape:window-height="745"
     inkscape:window-x="-8"
     inkscape:window-y="-8"
     inkscape:window-maximized="1" />
  <metadata
     id="metadata5">
    <rdf:RDF>
      <cc:Work
         rdf:about="">
        <dc:format>image/svg+xml</dc:format>
        <dc:type
           rdf:resource="http://purl.org/dc/dcmitype/StillImage" />
        <dc:title></dc:title>
      </cc:Work>
    </rdf:RDF>
  </metadata>
  <g
     inkscape:label="Capa 1"
     inkscape:groupmode="layer"
     id="layer1"
     transform="translate(-32.359187,-28.87295)">
    <g
       id="layer1-9"
       inkscape:label="Capa 1"
       transform="translate(-6.047619,-65.011905)">
      <g
         transform="translate(0.36350262,18.890555)"
         inkscape:label="Capa 1"
         id="layer1-5">
        <path
           style="fill:none;stroke:#000000;stroke-width:0.26458332px;stroke-linecap:butt;stroke-linejoin:miter;stroke-opacity:1"
           d="M 38.175595,75.127977 V 190.03273 H 59.342261 V 140.13988 H 100.16369 V 121.24107 H 57.830358 V 95.538684 H 110.74702 V 75.883928 Z"
           id="path3701"
           inkscape:connector-curvature="0" />
        <path
           style="fill:#000000;stroke-width:0.32538548"
           d="m 125.54344,190.16661 c -4.95726,-1.03343 -5.17917,-1.09941 -8.325,-2.47572 -6.23763,-2.7291 -10.85323,-6.43871 -15.0289,-12.07966 -0.48808,-0.65917 -0.88733,-1.28459 -0.88733,-1.38985 0,-0.10528 -0.38754,-0.77693 -0.86097,-1.49258 -0.473771,-0.71564 -0.803051,-1.35889 -0.732121,-1.42941 0.071,-0.0706 1.007391,-0.63285 2.081171,-1.24959 1.07377,-0.61674 3.78261,-2.19221 6.01963,-3.50104 5.34673,-3.12831 7.27432,-4.20563 7.53724,-4.2128 0.11904,-0.003 0.68721,0.76282 1.2628,1.70238 1.4789,2.41301 5.30347,6.07048 7.79495,7.454 2.68214,1.48929 5.95618,2.22621 9.89073,2.22621 5.30705,0 8.29897,-1.0043 10.82363,-3.6332 1.73431,-1.80579 2.38833,-3.43107 2.38443,-5.92405 -0.006,-3.39704 -1.82152,-6.22551 -5.43036,-8.45736 -1.23581,-0.76432 -5.47297,-2.75806 -11.64912,-5.48141 -9.31514,-4.1075 -14.04493,-6.9936 -17.60726,-10.74382 -3.03064,-3.19048 -4.03153,-4.70677 -5.44305,-8.24596 -1.33669,-3.35175 -1.83029,-6.16205 -1.82509,-10.38934 0.007,-4.60941 0.47668,-7.27103 1.85111,-10.45709 2.9405,-6.81702 8.2775,-11.53411 16.02849,-14.166529 3.01405,-1.023636 3.25777,-1.052935 9.77134,-1.174638 7.17865,-0.134124 8.2573,0.0098 13.16671,1.763879 3.56786,1.274242 5.6116,2.616264 9.03596,5.933568 3.6749,3.56 6.09511,7.01946 5.39392,7.70976 -0.97584,0.96102 -14.32836,9.25186 -14.61469,9.0748 -0.17017,-0.10513 -0.79622,-0.95009 -1.39135,-1.87779 -1.40046,-2.18296 -3.21579,-3.79783 -5.5579,-4.94363 -1.68681,-0.82538 -2.21392,-0.91862 -5.18048,-0.91619 -2.78171,0.003 -3.53304,0.11904 -4.76656,0.74081 -3.36351,1.6955 -4.5554,3.65698 -4.5554,7.49708 0,3.34014 0.41454,4.2941 2.84388,6.54257 2.02844,1.87765 5.25041,3.63314 10.98793,5.98679 4.69401,1.92552 12.47136,5.83451 15.29019,7.68507 1.4317,0.93992 4.00191,3.10956 5.71182,4.82143 3.58151,3.58595 5.07015,6.10531 6.41757,10.8604 0.73603,2.59666 0.8499,3.63162 0.86682,7.8706 0.0228,5.83048 -0.64652,8.778 -2.98149,13.1251 -3.35246,6.24205 -10.3466,11.25794 -17.98665,12.89949 -4.68491,1.00657 -6.05641,1.14116 -11.38851,1.11759 -4.27198,-0.0189 -6.1,-0.17614 -8.94809,-0.76987 z"
           id="path3748"
           inkscape:connector-curvature="0" />
        <path
           style="opacity:1;fill:#ffffff;fill-opacity:1;stroke:#000004;stroke-width:1.42857146;stroke-opacity:1"
           d="M 146.12619,501.09835 V 284.49398 l 44.64286,0.88319 c 24.55357,0.48576 85.625,1.28986 135.71428,1.78689 l 91.07143,0.9037 v 36.24605 36.24605 h -100 -100 v 49.28572 49.28571 h 80 80 v 35 35 H 300.4119 223.26905 v 94.28571 94.28572 h -38.57143 -38.57143 z"
           id="path41"
           inkscape:connector-curvature="0"
           transform="scale(0.26458333)" />
        <path
           style="opacity:1;fill:#000000;fill-opacity:1;stroke:#ffffff;stroke-width:1.42857146;stroke-opacity:1"
           d="m 471.85889,717.58622 c -38.83999,-8.358 -69.6675,-29.65264 -89.79333,-62.02636 -4.12428,-6.63418 -4.26498,-7.27463 -1.97566,-8.99328 4.28779,-3.21895 54.13489,-31.72112 55.47201,-31.71845 0.70321,10e-4 3.03257,2.77906 5.17636,6.17257 5.01309,7.93549 19.98823,22.26802 28.24506,27.03303 10.74262,6.19957 21.9676,8.74432 38.57143,8.74432 20.09449,0 29.37563,-2.78459 38.9268,-11.67905 8.82656,-8.21968 11.0771,-13.28054 11.0598,-24.8704 -0.0114,-7.35395 -0.79131,-10.3309 -4.32153,-16.48657 -5.93838,-10.3548 -13.57318,-15.45657 -43.52221,-29.08261 -53.914,-24.52952 -68.64134,-33.32726 -84.85834,-50.69226 -17.92021,-19.18878 -24.76247,-38.15805 -24.68191,-68.4273 0.0423,-15.88378 0.57891,-20.24157 3.70812,-30.11201 7.6365,-24.08771 24.36917,-43.08155 48.68927,-55.26889 16.13977,-8.088 24.61801,-9.62521 54.11113,-9.81101 24.66126,-0.15536 28.28978,0.13946 37.31744,3.03205 16.50214,5.28752 27.97037,11.91736 39.97907,23.11209 11.05032,10.30132 23.5993,25.65041 23.58515,28.84778 -0.007,1.60794 -23.62689,17.41455 -44.1001,29.51228 l -10.53589,6.2257 -3.01164,-4.19756 c -6.36439,-8.87054 -15.32077,-17.32445 -21.91037,-20.68117 -5.43493,-2.76852 -9.5589,-3.59944 -19.81492,-3.99237 -14.29687,-0.54775 -19.54216,0.89888 -27.45689,7.57251 -6.26003,5.27839 -8.74085,10.45092 -9.76864,20.36763 -2.25136,21.7226 7.33267,31.31472 50.55969,50.60241 49.54094,22.10493 65.83967,32.12225 84.12894,51.70622 10.79092,11.55478 17.30934,23.17511 21.36346,38.08434 3.44143,12.65604 3.48554,44.12756 0.0799,56.96522 -6.54372,24.66631 -25.33036,47.11421 -49.52629,59.17832 -21.41839,10.67923 -31.47297,12.76309 -64.28571,13.32352 -23.87625,0.40778 -29.79393,0.059 -41.41016,-2.4407 z"
           id="path43"
           inkscape:connector-curvature="0"
           transform="scale(0.26458333)" />
      </g>
      <path
         transform="scale(0.26458333)"
         inkscape:connector-curvature="0"
         id="path829"
         d="m 462,783.57671 c -31.97255,-10.66077 -55.43179,-27.23505 -71.40146,-50.4462 -9.82211,-14.27594 -11.12759,-12.43122 22.00659,-31.0967 l 23.46227,-13.217 13.68058,14.69862 c 18.39824,19.76734 30.94607,25.14874 58.82248,25.22723 23.68105,0.0666 33.32549,-3.16003 43.83536,-14.66579 12.14417,-13.29494 11.02578,-32.80035 -2.739,-47.7701 -3.43104,-3.7314 -26.8321,-16.76616 -52.00236,-28.96614 -49.7366,-24.10724 -69.95883,-39.21034 -83.54782,-62.39819 -6.72887,-11.48195 -7.87542,-16.95281 -8.8027,-42.00277 -1.31237,-35.45294 4.36715,-51.46018 25.15897,-70.9085 23.53328,-22.01262 33.61402,-25.71346 73.49617,-26.98188 32.8151,-1.04366 35.78496,-0.6706 51.42857,6.4602 16.40385,7.47734 49.45949,36.47844 49.45949,43.39289 0,1.88029 -11.0763,10.47559 -24.61401,19.10066 l -24.61402,15.68194 -8.91277,-10.15109 c -11.17089,-12.72294 -23.28562,-17.87135 -42.05314,-17.87135 -12.86627,0 -15.85365,1.19046 -24.37749,9.71429 -8.1249,8.1249 -9.69772,11.74776 -9.61304,22.14286 0.19363,23.76766 5.41138,28.31743 66.11317,57.64914 37.23874,17.99412 47.60225,24.42604 61.56297,38.20791 24.53026,24.216 27.9369,32.85638 27.9369,70.85723 0,25.50486 -1.06147,33.58266 -5.63172,42.85714 -8.21624,16.67338 -29.16566,36.35098 -48.7163,45.75878 -15.80151,7.60371 -19.96888,8.28462 -55.65198,9.09285 -31.4634,0.71266 -41.46729,-0.092 -54.28571,-4.36603 z"
         style="opacity:1;fill:#ffffff;fill-opacity:1;stroke:#ffffff;stroke-width:2.85714293;stroke-opacity:1" />
    </g>
  </g>
</svg>
